<svg width="20" height="14" viewBox="0 0 20 14" fill="none" xmlns="http://www.w3.org/2000/svg">
<path fill-rule="evenodd" clip-rule="evenodd" d="M0 6.75C0 3.02208 3.02208 0 6.75 0H14.75C17.3734 0 19.5 2.12665 19.5 4.75C19.5 7.37335 17.3734 9.5 14.75 9.5H6.60714C5.08836 9.5 3.85714 8.26878 3.85714 6.75C3.85714 5.23122 5.08836 4 6.60714 4H14.4643C14.8785 4 15.2143 4.33579 15.2143 4.75C15.2143 5.16421 14.8785 5.5 14.4643 5.5H6.60714C5.91679 5.5 5.35714 6.05964 5.35714 6.75C5.35714 7.44036 5.91679 8 6.60714 8H14.75C16.5449 8 18 6.54493 18 4.75C18 2.95507 16.5449 1.5 14.75 1.5H6.75C3.8505 1.5 1.5 3.85051 1.5 6.75C1.5 9.6495 3.85051 12 6.75 12H14.4643C14.8785 12 15.2143 12.3358 15.2143 12.75C15.2143 13.1642 14.8785 13.5 14.4643 13.5H6.75C3.02208 13.5 0 10.4779 0 6.75Z" fill="white"/>
</svg>
