<svg width="20" height="20" viewBox="0 0 20 20" fill="none" xmlns="http://www.w3.org/2000/svg">
<path fill-rule="evenodd" clip-rule="evenodd" d="M19.455 3.41575C19.6473 3.70687 19.6152 4.10248 19.3589 4.35876L10.1666 13.5511C10.0723 13.6454 9.95469 13.7128 9.82577 13.7465L5.99734 14.7465C5.87247 14.7791 5.74376 14.7784 5.62283 14.7476C5.49427 14.7149 5.37449 14.6482 5.27748 14.5511C5.0892 14.3629 5.01486 14.0889 5.08215 13.8313L6.08215 10.0028C6.11162 9.89003 6.16691 9.77861 6.2434 9.69121L15.4699 0.46967C15.5506 0.388906 15.6479 0.32846 15.7538 0.291631C15.8323 0.264324 15.9155 0.25 16.0002 0.25C16.1991 0.25 16.3899 0.329017 16.5305 0.46967L19.3589 3.2981C19.3956 3.33471 19.4276 3.37416 19.455 3.41575ZM17.768 3.82843L16.0002 2.06066L7.48202 10.5788L6.85703 12.9716L9.2498 12.3466L17.768 3.82843Z" fill="white"/>
<path d="M17.6415 15.1603C17.9149 12.8227 18.0019 10.4688 17.9025 8.12079C17.8978 8.00837 17.94 7.89898 18.0196 7.81942L19.0029 6.83609C19.1238 6.71519 19.3304 6.79194 19.3417 6.96254C19.5266 9.75219 19.4565 12.5545 19.1314 15.3346C18.8948 17.3571 17.2705 18.9421 15.2584 19.167C11.7919 19.5544 8.20853 19.5544 4.74195 19.167C2.7299 18.9421 1.10556 17.3571 0.869009 15.3346C0.454471 11.7903 0.454471 8.20973 0.869009 4.66543C1.10556 2.6429 2.7299 1.05789 4.74195 0.833012C7.3717 0.539099 10.0686 0.468149 12.7308 0.620161C12.9024 0.629958 12.9806 0.837575 12.8591 0.959093L11.8666 1.95165C11.7879 2.03034 11.6799 2.07261 11.5687 2.06885C9.34229 1.99376 7.10074 2.07872 4.90856 2.32373C3.57846 2.47239 2.51297 3.522 2.35885 4.83968C1.95786 8.26821 1.95786 11.7318 2.35885 15.1603C2.51297 16.478 3.57845 17.5276 4.90856 17.6763C8.26441 18.0513 11.736 18.0513 15.0918 17.6763C16.4219 17.5276 17.4874 16.478 17.6415 15.1603Z" fill="white"/>
</svg>
