<svg width="24" height="24" viewBox="0 0 24 24" fill="none" xmlns="http://www.w3.org/2000/svg">
<path fill-rule="evenodd" clip-rule="evenodd" d="M16.7857 3.72505C15.9102 2.8496 14.4274 3.13517 13.9397 4.27313L12.3472 7.98916C10.8481 7.69519 9.233 8.12825 8.07009 9.29115L6.36 11.0012C6.06711 11.2941 6.06711 11.769 6.36 12.0619L8.85531 14.5572L3.46967 19.9429C3.17678 20.2357 3.17678 20.7106 3.46967 21.0035C3.76256 21.2964 4.23744 21.2964 4.53033 21.0035L9.91597 15.6179L12.4114 18.1133C12.552 18.2539 12.7428 18.3329 12.9417 18.3329C13.1406 18.3329 13.3314 18.2539 13.472 18.1133L15.1821 16.4032C16.345 15.2403 16.7781 13.6252 16.4841 12.1261L20.2001 10.5335C21.3381 10.0458 21.6236 8.56301 20.7482 7.68757L16.7857 3.72505ZM15.3185 4.86401C15.3881 4.70144 15.6 4.66065 15.725 4.78571L19.6875 8.74823C19.8126 8.87329 19.7718 9.08512 19.6092 9.15479L15.2939 11.0042C14.9296 11.1604 14.7496 11.5731 14.8832 11.9463C15.2942 13.0946 15.0389 14.4251 14.1215 15.3425L12.9417 16.5223L7.95099 11.5316L9.13075 10.3518C10.0482 9.4344 11.3786 9.17904 12.5269 9.59004C12.9002 9.72362 13.3129 9.5437 13.469 9.17934L15.3185 4.86401Z" fill="#808080"/>
</svg>
