<svg width="18" height="18" viewBox="0 0 18 18" fill="none" xmlns="http://www.w3.org/2000/svg">
<path fill-rule="evenodd" clip-rule="evenodd" d="M1.59182 12.3042C-0.656044 6.78675 3.40306 0.75 9.36088 0.75H9.6823C14.1379 0.75 17.7499 4.36201 17.7499 8.81765C17.7499 13.7785 13.7284 17.8 8.76759 17.8H0.947308C0.62905 17.8 0.345448 17.5991 0.23982 17.2989C0.134192 16.9987 0.229543 16.6645 0.477686 16.4652L2.44918 14.8819C2.53538 14.8127 2.56587 14.6951 2.52416 14.5927L1.59182 12.3042ZM9.36088 2.25C4.46834 2.25 1.13502 7.20735 2.98096 11.7383L3.9133 14.0268C4.2053 14.7435 3.99184 15.5669 3.38842 16.0515L3.07897 16.3H8.76759C12.9 16.3 16.2499 12.95 16.2499 8.81765C16.2499 5.19044 13.3095 2.25 9.6823 2.25H9.36088Z" fill="white"/>
</svg>
