<svg width="20" height="20" viewBox="0 0 20 20" fill="none" xmlns="http://www.w3.org/2000/svg">
<path d="M11.5 7.75C11.5 7.33579 11.1642 7 10.75 7H4.75C4.33579 7 4 7.33579 4 7.75C4 8.16421 4.33579 8.5 4.75 8.5H10.75C11.1642 8.5 11.5 8.16421 11.5 7.75Z" fill="white"/>
<path d="M10.5 10.75C10.5 10.3358 10.1642 10 9.75 10H4.75C4.33579 10 4 10.3358 4 10.75C4 11.1642 4.33579 11.5 4.75 11.5H9.75C10.1642 11.5 10.5 11.1642 10.5 10.75Z" fill="white"/>
<path d="M10.75 13C11.1642 13 11.5 13.3358 11.5 13.75C11.5 14.1642 11.1642 14.5 10.75 14.5H4.75C4.33579 14.5 4 14.1642 4 13.75C4 13.3358 4.33579 13 4.75 13H10.75Z" fill="white"/>
<path fill-rule="evenodd" clip-rule="evenodd" d="M4 19.75H17C18.5188 19.75 19.75 18.5188 19.75 17V11.5C19.75 11.0858 19.4142 10.75 19 10.75H15.75V2.9432C15.75 1.51979 14.1411 0.691828 12.9828 1.51916L12.8078 1.6442C12.0273 2.20169 10.9701 2.19982 10.1859 1.63971C8.88206 0.708375 7.11794 0.708375 5.81407 1.63971C5.02992 2.19982 3.9727 2.20169 3.19221 1.6442L3.01717 1.51916C1.8589 0.691827 0.25 1.5198 0.25 2.9432V16C0.25 18.0711 1.92893 19.75 4 19.75ZM6.68593 2.86031C7.46825 2.30151 8.53175 2.30151 9.31407 2.86031C10.6161 3.79033 12.3739 3.79744 13.6796 2.8648L13.8547 2.73976C14.0202 2.62157 14.25 2.73985 14.25 2.9432V17C14.25 17.4501 14.3581 17.875 14.5499 18.25H4C2.75736 18.25 1.75 17.2426 1.75 16V2.9432C1.75 2.73985 1.97984 2.62157 2.14531 2.73976L2.32036 2.8648C3.62605 3.79744 5.3839 3.79033 6.68593 2.86031ZM15.75 17V12.25H18.25V17C18.25 17.6904 17.6904 18.25 17 18.25C16.3096 18.25 15.75 17.6904 15.75 17Z" fill="white"/>
</svg>
