<svg width="37" height="28" viewBox="0 0 37 28" fill="none" xmlns="http://www.w3.org/2000/svg">
<path fill-rule="evenodd" clip-rule="evenodd" d="M15.1655 9.62499C15.1655 7.34298 17.0066 5.49304 19.2778 5.49304C21.5489 5.49304 23.3901 7.34298 23.3901 9.62499C23.3901 11.907 21.5489 13.7569 19.2778 13.7569C17.0066 13.7569 15.1655 11.907 15.1655 9.62499ZM19.2778 6.95138C17.8082 6.95138 16.6169 8.14839 16.6169 9.62499C16.6169 11.1016 17.8082 12.2986 19.2778 12.2986C20.7474 12.2986 21.9387 11.1016 21.9387 9.62499C21.9387 8.14839 20.7474 6.95138 19.2778 6.95138Z" fill="white"/>
<path fill-rule="evenodd" clip-rule="evenodd" d="M15.4074 16.6736C14.205 16.6736 13.2303 17.653 13.2303 18.8611V20.0164C13.2303 20.034 13.243 20.049 13.2603 20.0518C17.2456 20.7056 21.31 20.7056 25.2953 20.0518C25.3126 20.049 25.3252 20.034 25.3252 20.0164V18.8611C25.3252 17.653 24.3505 16.6736 23.1482 16.6736H22.8183C22.7928 16.6736 22.7675 16.6776 22.7432 16.6856L21.9058 16.9604C20.1982 17.5206 18.3574 17.5206 16.6498 16.9604L15.8123 16.6856C15.7881 16.6776 15.7627 16.6736 15.7372 16.6736H15.4074ZM11.7789 18.8611C11.7789 16.8476 13.4035 15.2153 15.4074 15.2153H15.7372C15.9158 15.2153 16.0931 15.2436 16.2628 15.2993L17.1003 15.5741C18.5152 16.0383 20.0404 16.0383 21.4553 15.5741L22.2927 15.2993C22.4624 15.2436 22.6398 15.2153 22.8183 15.2153H23.1482C25.1521 15.2153 26.7766 16.8476 26.7766 18.8611V20.0164C26.7766 20.7487 26.2484 21.3731 25.5291 21.4911C21.389 22.1703 17.1666 22.1703 13.0264 21.4911C12.3071 21.3731 11.7789 20.7487 11.7789 20.0164V18.8611Z" fill="white"/>
<path fill-rule="evenodd" clip-rule="evenodd" d="M6.29688 7.68749C6.29688 5.90752 7.84289 4.46457 9.75 4.46457C11.6571 4.46457 13.2031 5.90752 13.2031 7.68749C13.2031 9.46745 11.6571 10.9104 9.75 10.9104C7.84289 10.9104 6.29688 9.46745 6.29688 7.68749ZM9.75 5.60207C8.51599 5.60207 7.51562 6.53574 7.51562 7.68749C7.51562 8.83923 8.51599 9.7729 9.75 9.7729C10.984 9.7729 11.9844 8.83923 11.9844 7.68749C11.9844 6.53574 10.984 5.60207 9.75 5.60207Z" fill="white"/>
<path fill-rule="evenodd" clip-rule="evenodd" d="M6.5 13.1854C5.49035 13.1854 4.67188 13.9493 4.67188 14.8917V15.7928C4.67188 15.8065 4.68253 15.8182 4.69704 15.8204C8.04353 16.3303 11.4565 16.3303 14.803 15.8204C14.8175 15.8182 14.8281 15.8065 14.8281 15.7928V14.8917C14.8281 13.9493 14.0096 13.1854 13 13.1854H12.723C12.7016 13.1854 12.6804 13.1886 12.66 13.1948L11.9568 13.4091C10.5228 13.8461 8.97716 13.8461 7.54324 13.4091L6.84001 13.1948C6.81965 13.1886 6.79837 13.1854 6.77696 13.1854H6.5ZM3.45312 14.8917C3.45312 13.3211 4.81726 12.0479 6.5 12.0479H6.77696C6.92686 12.0479 7.07581 12.07 7.21831 12.1135L7.92154 12.3278C9.10965 12.6899 10.3904 12.6899 11.5785 12.3278L12.2817 12.1135C12.4242 12.07 12.5731 12.0479 12.723 12.0479H13C14.6827 12.0479 16.0469 13.3211 16.0469 14.8917V15.7928C16.0469 16.364 15.6033 16.851 14.9993 16.943C11.5228 17.4728 7.97721 17.4728 4.50066 16.943C3.89666 16.851 3.45312 16.364 3.45312 15.7928V14.8917Z" fill="white"/>
</svg>
