<svg width="20" height="18" viewBox="0 0 20 18" fill="none" xmlns="http://www.w3.org/2000/svg">
<path fill-rule="evenodd" clip-rule="evenodd" d="M3.88657 18C3.57547 18 3.3399 17.7189 3.39427 17.4126L4.00001 14H0.59511C0.28449 14 0.0490497 13.7198 0.10259 13.4138L0.27759 12.4138C0.31946 12.1746 0.527219 12 0.770109 12H4.35001L5.41001 6H2.00511C1.69449 6 1.45905 5.71977 1.51259 5.41381L1.68759 4.41381C1.72946 4.17456 1.93722 4 2.18011 4H5.76001L6.39677 0.41262C6.43914 0.17391 6.64664 0 6.88907 0H7.87344C8.1845 0 8.4201 0.28107 8.3657 0.58738L7.76001 4H13.76L14.3968 0.41262C14.4391 0.17391 14.6466 0 14.8891 0H15.8734C16.1845 0 16.4201 0.28107 16.3657 0.58738L15.76 4H19.1649C19.4755 4 19.711 4.28023 19.6574 4.58619L19.4824 5.58619C19.4406 5.82544 19.2328 6 18.9899 6H15.41L14.35 12H17.7549C18.0655 12 18.301 12.2802 18.2474 12.5862L18.0724 13.5862C18.0306 13.8254 17.8228 14 17.5799 14H14L13.3632 17.5874C13.3209 17.8261 13.1134 18 12.8709 18H11.8866C11.5755 18 11.3399 17.7189 11.3943 17.4126L12 14H6.00001L5.36325 17.5874C5.32088 17.8261 5.11337 18 4.87094 18H3.88657ZM7.41045 6L6.35045 12H12.3504L13.4104 6H7.41045Z" fill="#B9BBBE"/>
</svg>
